<svg xmlns="http://www.w3.org/2000/svg" viewBox="0 0 200 340">
  <defs>
    <linearGradient id="asf-scarf-grad" x1="0" y1="0" x2="0" y2="1">
      <stop offset="0%" stop-color="#FF6B6B"/>
      <stop offset="50%" stop-color="#DC143C"/>
      <stop offset="100%" stop-color="#B22222"/>
    </linearGradient>
    <linearGradient id="asf-shade" x1="0" y1="0" x2="1" y2="0">
      <stop offset="0%" stop-color="#FF4444"/>
      <stop offset="100%" stop-color="#8B0000"/>
    </linearGradient>
  </defs>
  <style>
    .asf-scarf{fill:url(#asf-scarf-grad);stroke:#8B0000;stroke-width:1}
    .asf-shade{fill:url(#asf-shade);opacity:0.4}
    .asf-knot{fill:#DC143C;stroke:#8B0000;stroke-width:1}
    .asf-fringe{stroke:#B22222;stroke-width:0.8;fill:none;stroke-linecap:round}
  </style>
  <g id="clothing">
    <!-- Neck wrap -->
    <path d="M75 115 Q85 108 100 107 Q115 108 125 115 Q120 125 100 128 Q80 125 75 115 Z" class="asf-scarf"/>
    <!-- Neck shading -->
    <path d="M80 112 Q90 109 100 110 Q110 109 120 112 Q115 118 100 120 Q85 118 80 112 Z" class="asf-shade"/>
    <!-- Left end -->
    <path d="M75 122 L65 155 Q62 175 65 200 L78 198 Q75 175 78 155 Z" class="asf-scarf"/>
    <!-- Left fold lines -->
    <path d="M72 160 Q68 170 68 185" stroke="#8B0000" stroke-width="0.8" fill="none" opacity="0.4"/>
    <!-- Right end -->
    <path d="M122 125 L130 155 Q132 168 130 180 L118 182 Q120 170 118 155 Z" class="asf-scarf"/>
    <!-- Knot -->
    <ellipse cx="100" cy="122" rx="8" ry="5" class="asf-knot"/>
    <!-- Left fringe -->
    <line x1="65" y1="202" x2="64" y2="210" class="asf-fringe"/>
    <line x1="70" y1="205" x2="70" y2="212" class="asf-fringe"/>
    <line x1="75" y1="204" x2="76" y2="211" class="asf-fringe"/>
    <!-- Right fringe -->
    <line x1="118" y1="182" x2="116" y2="188" class="asf-fringe"/>
    <line x1="123" y1="183" x2="124" y2="189" class="asf-fringe"/>
  </g>
</svg>