<svg xmlns="http://www.w3.org/2000/svg" viewBox="0 0 200 340">
  <defs>
    <linearGradient id="asf-scarf-grad" x1="0" y1="0" x2="0" y2="1">
      <stop offset="0%" stop-color="#FF6B6B"/>
      <stop offset="50%" stop-color="#DC143C"/>
      <stop offset="100%" stop-color="#B22222"/>
    </linearGradient>
    <linearGradient id="asf-shade" x1="0" y1="0" x2="1" y2="0">
      <stop offset="0%" stop-color="#FF4444"/>
      <stop offset="100%" stop-color="#8B0000"/>
    </linearGradient>
  </defs>
  <style>
    .asf-scarf{fill:url(#asf-scarf-grad);stroke:#8B0000;stroke-width:1}
    .asf-shade{fill:url(#asf-shade);opacity:0.4}
    .asf-knot{fill:#DC143C;stroke:#8B0000;stroke-width:1}
    .asf-fringe{stroke:#B22222;stroke-width:0.8;fill:none;stroke-linecap:round}
  </style>
  <g id="clothing">
    <!-- Neck wrap -->
    <path d="M75 127 Q85 120 100 119 Q115 120 125 127 Q120 137 100 140 Q80 137 75 127 Z" class="asf-scarf"/>
    <!-- Neck shading -->
    <path d="M80 124 Q90 121 100 122 Q110 121 120 124 Q115 130 100 132 Q85 130 80 124 Z" class="asf-shade"/>
    <!-- Left end -->
    <path d="M75 135 L62 172 Q58 195 60 225 L75 222 Q72 195 78 168 Z" class="asf-scarf"/>
    <!-- Left fold lines -->
    <path d="M72 175 Q67 188 66 205" stroke="#8B0000" stroke-width="0.8" fill="none" opacity="0.4"/>
    <!-- Right end -->
    <path d="M125 137 L138 172 Q142 195 140 225 L125 222 Q128 195 122 168 Z" class="asf-scarf"/>
    <!-- Knot -->
    <ellipse cx="100" cy="133" rx="9" ry="6" class="asf-knot"/>
    <!-- Left fringe -->
    <line x1="60" y1="227" x2="58" y2="238" class="asf-fringe"/>
    <line x1="67" y1="230" x2="66" y2="242" class="asf-fringe"/>
    <line x1="74" y1="230" x2="75" y2="241" class="asf-fringe"/>
    <!-- Right fringe -->
    <line x1="126" y1="222" x2="124" y2="232" class="asf-fringe"/>
    <line x1="133" y1="225" x2="134" y2="237" class="asf-fringe"/>
  </g>
</svg>