<svg xmlns="http://www.w3.org/2000/svg" viewBox="0 0 200 340">
  <defs>
    <linearGradient id="fairy-grad" x1="0" y1="0" x2="0" y2="1">
      <stop offset="0%" stop-color="#DA70D6"/>
      <stop offset="100%" stop-color="#8B008B"/>
    </linearGradient>
    <linearGradient id="fairy-wing" x1="0" y1="0" x2="1" y2="1">
      <stop offset="0%" stop-color="#FFB6D9"/>
      <stop offset="100%" stop-color="#FF69B4"/>
    </linearGradient>
  </defs>
  <g id="back-layer">
    <path d="M60,140 Q55,160 65,180 Q70,165 75,150 Z" fill="url(#fairy-wing)" opacity="0.7"/>
    <path d="M140,140 Q145,160 135,180 Q130,165 125,150 Z" fill="url(#fairy-wing)" opacity="0.7"/>
  </g>
  <g id="clothing">
    <path d="M70,115 Q100,108 130,115 L135,220 Q100,235 65,220 Z" fill="url(#fairy-grad)"/>
    <path d="M75,220 Q70,250 75,280 Q80,290 85,295" fill="none" stroke="url(#fairy-grad)" stroke-width="8" opacity="0.6"/>
    <path d="M125,220 Q130,250 125,280 Q120,290 115,295" fill="none" stroke="url(#fairy-grad)" stroke-width="8" opacity="0.6"/>
    <circle cx="100" cy="130" r="3" fill="#FFD700" opacity="0.9"/>
    <circle cx="90" cy="180" r="2" fill="#FFD700" opacity="0.8"/>
    <circle cx="110" cy="180" r="2" fill="#FFD700" opacity="0.8"/>
  </g>
</svg>