<svg xmlns="http://www.w3.org/2000/svg" viewBox="0 0 200 340">
  <defs>
    <linearGradient id="hps-main" x1="0" y1="0" x2="1" y2="0">
      <stop offset="0%" stop-color="#6B0090"/>
      <stop offset="30%" stop-color="#8B00FF"/>
      <stop offset="70%" stop-color="#8B00FF"/>
      <stop offset="100%" stop-color="#6B0090"/>
    </linearGradient>
    <linearGradient id="hps-spike" x1="0" y1="0" x2="0" y2="1">
      <stop offset="0%" stop-color="#A855F7"/>
      <stop offset="60%" stop-color="#8B00FF"/>
      <stop offset="100%" stop-color="#5A0080"/>
    </linearGradient>
    <linearGradient id="hps-highlight" x1="0" y1="0" x2="0" y2="1">
      <stop offset="0%" stop-color="#D78FFF"/>
      <stop offset="100%" stop-color="#8B00FF"/>
    </linearGradient>
  </defs>
  <style>
    .hps-base{fill:#8B00FF;stroke:#6B0090;stroke-width:1}
    .hps-spike{fill:url(#hps-spike);stroke:#5A0080;stroke-width:0.8}
    .hps-hi{fill:#A855F7;opacity:0.5}
    .hps-shade{fill:#5A0080;opacity:0.4}
  </style>

  <!-- No back-layer needed - short punk hair doesn't go behind body -->
  <g id="back-layer">
    <!-- Minimal base underneath -->
    <path d="M65 50 Q100 35 135 50 Q138 60 135 75 Q100 65 65 75 Q62 60 65 50 Z" class="hps-base"/>
  </g>

  <!-- Front layer: spikes radiating from crown -->
  <g id="clothing">
    <!-- Base/undercut shading on sides (raised, stops above eyes) -->
    <path d="M56 70 Q60 58 70 50 Q75 58 74 70 Z" class="hps-shade"/>
    <path d="M144 70 Q140 58 130 50 Q125 58 126 70 Z" class="hps-shade"/>

    <!-- Center crown base volume -->
    <circle cx="100" cy="45" r="24" class="hps-base"/>

    <!-- Left-side spikes radiating outward/upward -->
    <!-- Spike 1 (far left, pointing down-left) -->
    <path d="M68 55 Q58 50 52 38 Q60 45 68 55 Z" class="hps-spike"/>
    <!-- Spike 2 (left, pointing up-left) -->
    <path d="M72 38 Q62 25 58 5 Q68 22 76 40 Z" class="hps-spike"/>
    <!-- Spike 3 (left-center, pointing up) -->
    <path d="M82 28 Q80 8 78 -12 Q85 8 88 30 Z" class="hps-spike"/>

    <!-- Center crown spikes pointing straight up -->
    <!-- Spike 4 (center-left) -->
    <path d="M92 25 Q90 0 88 -20 Q96 0 100 28 Z" class="hps-spike"/>
    <!-- Spike 5 (center) -->
    <path d="M100 22 Q100 -5 98 -18 Q102 -5 102 24 Z" class="hps-spike"/>
    <!-- Spike 6 (center-right) -->
    <path d="M108 25 Q110 0 112 -20 Q104 0 100 28 Z" class="hps-spike"/>

    <!-- Right-side spikes pointing up-right -->
    <!-- Spike 7 (right-center) -->
    <path d="M118 28 Q120 8 122 -12 Q115 8 112 30 Z" class="hps-spike"/>
    <!-- Spike 8 (right, pointing up) -->
    <path d="M128 38 Q138 25 142 5 Q132 22 124 40 Z" class="hps-spike"/>
    <!-- Spike 9 (far right, pointing down-right) -->
    <path d="M132 55 Q142 50 148 38 Q140 45 132 55 Z" class="hps-spike"/>

    <!-- Additional smaller accent spikes -->
    <!-- Mini spike front-left -->
    <path d="M75 42 Q72 30 70 20 Q76 30 78 44 Z" class="hps-spike" opacity="0.8"/>
    <!-- Mini spike front-right -->
    <path d="M125 42 Q128 30 130 20 Q124 30 122 44 Z" class="hps-spike" opacity="0.8"/>

    <!-- Highlight shine on spike tips -->
    <ellipse cx="88" cy="5" rx="3" ry="2" class="hps-hi"/>
    <ellipse cx="100" cy="2" rx="3" ry="2" class="hps-hi"/>
    <ellipse cx="112" cy="5" rx="3" ry="2" class="hps-hi"/>
    <ellipse cx="78" cy="12" rx="2" ry="2" class="hps-hi"/>
    <ellipse cx="122" cy="12" rx="2" ry="2" class="hps-hi"/>

    <!-- Metallic-ish glow on crown -->
    <circle cx="100" cy="45" r="24" fill="none" stroke="#A855F7" stroke-width="1" opacity="0.4"/>
  </g>
</svg>